<svg width="512" height="512" viewBox="0 0 512 512" fill="none" xmlns="http://www.w3.org/2000/svg">
<path d="M128 0C110.4 0 96 14.4 96 32V480C96 497.6 110.4 512 128 512H448C465.6 512 480 497.6 480 480V128L352 0H128Z" fill="#E2E5E7"/>
<path d="M384 128H480L352 0V96C352 113.6 366.4 128 384 128Z" fill="#B0B7BD"/>
<path d="M480 224L384 128H480V224Z" fill="#CAD1D8"/>
<path d="M416 416C416 424.8 408.8 432 400 432H48C39.2 432 32 424.8 32 416V256C32 247.2 39.2 240 48 240H400C408.8 240 416 247.2 416 256V416Z" fill="#1569D9"/>
<path d="M348.067 293H322.467C320.204 293 318.033 293.899 316.433 295.499C314.833 297.1 313.934 299.27 313.934 301.533V369.8C313.934 372.063 314.833 374.234 316.433 375.834C318.033 377.434 320.204 378.333 322.467 378.333C324.73 378.333 326.901 377.434 328.501 375.834C330.101 374.234 331 372.063 331 369.8V344.2H348.067C354.856 344.2 361.368 341.503 366.169 336.702C370.97 331.901 373.667 325.39 373.667 318.6C373.667 311.81 370.97 305.299 366.169 300.498C361.368 295.697 354.856 293 348.067 293ZM348.067 327.133H331V310.067H348.067C350.33 310.067 352.501 310.966 354.101 312.566C355.701 314.166 356.6 316.337 356.6 318.6C356.6 320.863 355.701 323.034 354.101 324.634C352.501 326.234 350.33 327.133 348.067 327.133Z" fill="white"/>
<path d="M134.733 293C132.47 293 130.3 293.899 128.699 295.499C127.099 297.1 126.2 299.27 126.2 301.533V344.2L115.96 330.547C115.131 329.539 114.088 328.727 112.908 328.17C111.728 327.612 110.439 327.323 109.133 327.323C107.828 327.323 106.539 327.612 105.359 328.17C104.178 328.727 103.136 329.539 102.307 330.547L92.0667 344.2V301.533C92.0667 299.27 91.1676 297.1 89.5673 295.499C87.967 293.899 85.7965 293 83.5333 293C81.2702 293 79.0997 293.899 77.4994 295.499C75.899 297.1 75 299.27 75 301.533V369.8C75 371.591 75.5635 373.337 76.6107 374.79C77.6579 376.242 79.1358 377.329 80.8349 377.895C82.5339 378.462 84.3682 378.479 86.0777 377.945C87.7872 377.411 89.2854 376.353 90.36 374.92L109.133 349.892L127.907 374.92C128.702 375.98 129.732 376.84 130.917 377.432C132.102 378.025 133.409 378.333 134.733 378.333C136.997 378.333 139.167 377.434 140.767 375.834C142.368 374.234 143.267 372.063 143.267 369.8V301.533C143.267 299.27 142.368 297.1 140.767 295.499C139.167 293.899 136.997 293 134.733 293Z" fill="white"/>
<path d="M211.532 310.067C213.795 310.067 215.966 309.168 217.566 307.567C219.166 305.967 220.065 303.797 220.065 301.533C220.065 299.27 219.166 297.1 217.566 295.499C215.966 293.899 213.795 293 211.532 293H168.865C166.602 293 164.432 293.899 162.831 295.499C161.231 297.1 160.332 299.27 160.332 301.533V369.8C160.332 372.063 161.231 374.234 162.831 375.834C164.432 377.434 166.602 378.333 168.865 378.333H211.532C213.795 378.333 215.966 377.434 217.566 375.834C219.166 374.234 220.065 372.063 220.065 369.8C220.065 367.537 219.166 365.366 217.566 363.766C215.966 362.166 213.795 361.267 211.532 361.267H177.399V344.2H194.465C196.729 344.2 198.899 343.301 200.499 341.701C202.1 340.1 202.999 337.93 202.999 335.667C202.999 333.403 202.1 331.233 200.499 329.633C198.899 328.032 196.729 327.133 194.465 327.133H177.399V310.067H211.532Z" fill="white"/>
<path d="M271.266 293H245.666C243.403 293 241.232 293.899 239.632 295.499C238.032 297.1 237.133 299.27 237.133 301.533V369.8C237.133 372.063 238.032 374.234 239.632 375.834C241.232 377.434 243.403 378.333 245.666 378.333H271.266C276.207 378.33 281.04 376.897 285.185 374.208C289.329 371.518 292.606 367.687 294.622 363.176C296.637 358.666 297.304 353.668 296.543 348.787C295.781 343.906 293.623 339.349 290.33 335.667C293.623 331.984 295.781 327.428 296.543 322.546C297.304 317.665 296.637 312.668 294.622 308.157C292.606 303.646 289.329 299.815 285.185 297.126C281.04 294.436 276.207 293.003 271.266 293ZM271.266 361.267H254.199V344.2H271.266C273.529 344.2 275.7 345.099 277.3 346.699C278.9 348.3 279.799 350.47 279.799 352.733C279.799 354.997 278.9 357.167 277.3 358.767C275.7 360.368 273.529 361.267 271.266 361.267ZM271.266 327.133H254.199V310.067H271.266C273.529 310.067 275.7 310.966 277.3 312.566C278.9 314.166 279.799 316.337 279.799 318.6C279.799 320.863 278.9 323.034 277.3 324.634C275.7 326.234 273.529 327.133 271.266 327.133Z" fill="white"/>
<path d="M400 432H96V448H400C408.8 448 416 440.8 416 432V416C416 424.8 408.8 432 400 432Z" fill="#CAD1D8"/>
</svg>
