<svg id="Capa_1" enable-background="new 0 0 512 512" height="512" viewBox="0 0 512 512" width="512" xmlns="http://www.w3.org/2000/svg"><g><g><g><g><g><g><g><ellipse cx="256" cy="256" fill="#ffce00" rx="256" ry="256" transform="matrix(.707 -.707 .707 .707 -106.039 256)"/></g></g></g></g></g></g><path d="m510.106 287.292-141.928-141.928-243.319 262.092 103.017 103.017c9.236 1.009 18.62 1.527 28.124 1.527 130.792 0 238.674-98.084 254.106-224.708z" fill="#ffa300"/><g><g><g><path d="m124.859 69.371v338.085h132.011l10-160.372-10-177.713z" fill="#fff"/></g><g><path d="m368.178 145.364-47.054-29.126-28.939-46.867h-36.185v338.085h112.178z" fill="#e9edf5"/></g><g><path d="m292.185 145.364h75.993l-75.993-75.993z" fill="#cdd2e1"/></g></g><g><path d="m153.732 159.924h84.626v30h-84.626z" fill="#bec3d2"/></g><g><path d="m153.732 207.563v30h103.138l6.778-15-6.778-15z" fill="#bec3d2"/></g><g><path d="m256 207.563h83.306v30h-83.306z" fill="#9196aa"/></g><g><path d="m153.732 255.204v30h103.138l3.989-15-3.989-15z" fill="#bec3d2"/></g><g><path d="m256 255.204h83.306v30h-83.306z" fill="#9196aa"/></g><g><path d="m153.732 302.844h99.746v30h-99.746z" fill="#bec3d2"/></g></g><g><g><path d="m353.012 351.876c-36.736 0-66.624-29.887-66.624-66.623s29.888-66.624 66.624-66.624c.298 0 .592.019.89.022l10-16.525-10-13.486c-.297-.002-.592-.011-.89-.011-53.278 0-96.624 43.345-96.624 96.624s43.346 96.623 96.624 96.623c.297 0 .593-.009.89-.011l10-16.132-10-13.879c-.298.003-.592.022-.89.022z" fill="#ff6c52"/></g><g><path d="m283.976 333.076 21.212 21.213 48.713-48.713 10-22.323-10-20.103z" fill="#ff6c52"/></g><path d="m353.012 188.629v30c12.948 0 25.044 3.712 35.281 10.129l-35.741 35.742v42.426l56.954-56.955c6.416 10.238 10.129 22.334 10.129 35.282 0 36.736-29.887 66.623-66.623 66.623v30c53.278 0 96.623-43.345 96.623-96.623s-43.345-96.624-96.623-96.624z" fill="#ff432e"/></g></g></svg>