<svg enable-background="new 0 0 64 64" height="512" viewBox="0 0 64 64" width="512" xmlns="http://www.w3.org/2000/svg"><g id="Icons"><g><path d="m55.662 28c-.176-1.049-.428-2.072-.735-3.07-1.506.681-3.17 1.07-4.927 1.07-1.178 0-2.315-.178-3.391-.496.887 1.988 1.391 4.182 1.391 6.496 0 8.822-7.178 16-16 16s-16-7.178-16-16 7.178-16 16-16c2.314 0 4.508.504 6.496 1.391-.318-1.076-.496-2.213-.496-3.391 0-1.757.389-3.421 1.07-4.926-.998-.308-2.021-.56-3.07-.736v-4.338h-8v4.338c-3.646.612-7.01 2.045-9.901 4.104l-3.069-3.069-5.657 5.657 3.069 3.069c-2.059 2.891-3.492 6.256-4.104 9.901h-4.338v8h4.338c.612 3.646 2.045 7.01 4.104 9.901l-3.069 3.069 5.657 5.657 3.069-3.069c2.891 2.059 6.256 3.492 9.901 4.104v4.338h8v-4.338c3.646-.612 7.01-2.045 9.901-4.104l3.069 3.069 5.657-5.657-3.069-3.069c2.059-2.891 3.492-6.256 4.104-9.901h4.338v-8z" fill="#fab400"/></g><g><path d="m8.338 28h4c.612-3.646 2.045-7.01 4.104-9.902l-3.069-3.069 3.657-3.657-2-2-5.657 5.657 3.069 3.069c-2.059 2.892-3.492 6.256-4.104 9.902z" fill="#dc9600"/></g><g><path d="m4 28h4v8h-4z" fill="#dc9600"/></g><g><path d="m13.373 48.971 3.069-3.069c-2.059-2.892-3.492-6.256-4.104-9.902h-4c.612 3.646 2.045 7.01 4.104 9.901l-3.069 3.069 5.657 5.657 2-2z" fill="#dc9600"/></g><g><path d="m50 24c-5.523 0-10-4.477-10-10 0-5.523 4.477-10 10-10 5.523 0 10 4.477 10 10 0 5.523-4.477 10-10 10z" fill="#64c8f0"/></g><g><path d="m42 14c0-5.185 3.947-9.448 9-9.95-.329-.032-.662-.05-1-.05-5.523 0-10 4.477-10 10s4.477 10 10 10c.338 0 .671-.018 1-.05-5.053-.502-9-4.765-9-9.95z" fill="#46aad2"/></g><g><path d="m57 15v-2h-2.12c-.13-.635-.366-1.232-.712-1.754l1.488-1.488-1.414-1.414-1.488 1.488c-.523-.347-1.119-.587-1.754-.718v-2.114h-2v2.114c-.635.131-1.231.371-1.754.718l-1.488-1.488-1.414 1.414 1.488 1.488c-.346.522-.582 1.119-.712 1.754h-2.12v2h2.12c.13.635.366 1.232.712 1.754l-1.488 1.488 1.414 1.414 1.488-1.488c.523.346 1.119.587 1.754.718v2.114h2v-2.114c.635-.131 1.231-.371 1.754-.718l1.488 1.488 1.414-1.414-1.488-1.488c.346-.523.582-1.119.712-1.754zm-7 2c-1.654 0-3-1.346-3-3s1.346-3 3-3 3 1.346 3 3-1.346 3-3 3z" fill="#f0f0f0"/></g><g><path d="m32 43v-2c4.963 0 9-4.037 9-9 0-2.854-1.314-5.479-3.607-7.2l1.201-1.6c2.8 2.104 4.406 5.311 4.406 8.8 0 6.065-4.935 11-11 11zm-6.594-2.2c-2.8-2.104-4.406-5.311-4.406-8.8 0-6.065 4.935-11 11-11v2c-4.962 0-9 4.037-9 9 0 2.854 1.314 5.479 3.607 7.2z" fill="#505050"/></g><g><path d="m32 38v8l-4-4z" fill="#505050"/></g><g><path d="m32 26v-8l4 4z" fill="#505050"/></g><g><path d="m32 36c-2.209 0-4-1.791-4-4 0-2.209 1.791-4 4-4 2.209 0 4 1.791 4 4 0 2.209-1.791 4-4 4z" fill="#3cc8b4"/></g></g></svg>