<svg id="Layer_1" enable-background="new 0 0 66 66" viewBox="0 0 66 66" xmlns="http://www.w3.org/2000/svg"><g><g><g><g><circle cx="33" cy="33" fill="#ffcd02" r="32"/></g></g></g><path d="m37.3 26.5-8-8s-18.9 5.8-6.2 27.7l-5.5 4.3 14.5 14.5c8.5.2 17-2.9 23.5-9.4s9.6-15 9.4-23.5l-16.8-16.8z" fill="#f7b000"/><g fill="#fff"><path d="m28.2 21.6c1-.4 1.6-1.5 1.3-2.5v-.1c-.3-1.4-1.7-2.1-3-1.5-6.7 2.7-11 9.4-10.6 16.8.2 4.5 2.2 8.6 5.4 11.6l-3.6 3.6c-.5.5-.2 1.4.6 1.4h10.3c.5 0 .8-.4.8-.8v-10.4c0-.7-.9-1.1-1.4-.6l-3.5 3.5c-2.5-2.2-4-5.3-4.1-8.7-.3-5.4 2.9-10.3 7.8-12.3z"/><path d="m50 32.3c-.3-4.6-2.3-8.8-5.7-11.8l3.9-3.9c.5-.5.2-1.4-.6-1.4h-10.3c-.5 0-.8.4-.8.8v10.3c0 .7.9 1.1 1.4.6l3.2-3.2c2.6 2.2 4.2 5.4 4.4 8.9.3 5.4-2.9 10.4-7.8 12.4-1 .4-1.6 1.5-1.3 2.5v.1c.3 1.4 1.7 2.1 3 1.5 6.7-2.7 11.1-9.4 10.6-16.8z"/></g></g></svg>