<svg id="Layer_1" enable-background="new 0 0 1580 1580" height="512" viewBox="0 0 1580 1580" width="512" xmlns="http://www.w3.org/2000/svg"><g><g><g><path d="m790 357c-13.7 0-24.8-11.1-24.8-24.8v-285.4c0-13.7 11.1-24.8 24.8-24.8s24.8 11.1 24.8 24.8v285.4c0 13.7-11.1 24.8-24.8 24.8z" fill="#8bdeff"/></g><g><path d="m914 71.6h-248c-13.7 0-24.8-11.1-24.8-24.8s11.1-24.8 24.8-24.8h248c13.7 0 24.8 11.1 24.8 24.8s-11.1 24.8-24.8 24.8z" fill="#7dc8e6"/></g></g><g fill="#f7e07f"><path d="m1111.3 370.9 137.3-137.3c30.9-30.9 81.1-30.9 112 0l59.8 59.7c30.9 30.9 30.9 81.1 0 112l-137.4 137.4z"/><path d="m297.4 543.1-137.8-137.8c-30.9-30.9-30.9-81.1 0-112l59.8-59.8c30.9-30.9 81.1-30.9 112 0l137.8 137.8z"/></g><g><g><path d="m1303.2 1558c-7.4 0-14.8-3.3-19.7-9.7l-206.1-268.7c-8.3-10.9-6.3-26.4 4.6-34.8 10.9-8.3 26.4-6.3 34.8 4.6l206.1 268.7c8.3 10.9 6.3 26.4-4.6 34.8-4.5 3.4-9.9 5.1-15.1 5.1z" fill="#f7e07f"/></g><g><path d="m276.8 1558c-5.3 0-10.6-1.7-15.1-5.1-10.9-8.3-12.9-23.9-4.6-34.8l194.8-254c8.3-10.9 23.9-12.9 34.8-4.6s12.9 23.9 4.6 34.8l-194.8 254c-4.9 6.4-12.2 9.7-19.7 9.7z" fill="#f7e07f"/></g></g><circle cx="790" cy="863.9" fill="#ff725c" r="655.2"/><circle cx="790" cy="863.9" fill="#e1efff" r="461.2"/><g><g><path d="m806.5 403.1v98.4c0 9.1-7.4 16.5-16.5 16.5s-16.5-7.4-16.5-16.5v-98.4c5.5-.2 11-.3 16.5-.3s11.1.1 16.5.3z" fill="#aab5c2"/></g><g><path d="m545.4 619.3c-3.2 3.2-7.5 4.8-11.7 4.8s-8.5-1.6-11.7-4.8l-69.6-69.5c7.5-8.1 15.3-15.9 23.4-23.4l69.6 69.6c6.4 6.4 6.4 16.9 0 23.3z" fill="#aab5c2"/></g><g><path d="m444.1 864c0 9.1-7.4 16.5-16.5 16.5h-98.4c-.2-5.5-.3-11-.3-16.5s.1-11.1.3-16.5h98.4c9.1-.1 16.5 7.3 16.5 16.5z" fill="#aab5c2"/></g><g><path d="m545.4 1132-69.6 69.6c-8.1-7.5-15.9-15.3-23.4-23.4l69.6-69.6c6.5-6.5 16.9-6.5 23.4 0 6.4 6.4 6.4 16.9 0 23.4z" fill="#aab5c2"/></g><g><path d="m806.5 1226.4v98.4c-5.5.2-11 .3-16.5.3s-11-.1-16.5-.3v-98.4c0-9.1 7.4-16.5 16.5-16.5s16.5 7.4 16.5 16.5z" fill="#aab5c2"/></g><g><path d="m1127.6 1178.1c-7.5 8.1-15.3 15.9-23.4 23.4l-69.6-69.6c-6.5-6.5-6.5-16.9 0-23.4s16.9-6.5 23.4 0z" fill="#aab5c2"/></g><g><path d="m1251.2 864c0 5.5-.1 11.1-.3 16.5h-98.4c-9.1 0-16.5-7.4-16.5-16.5s7.4-16.5 16.5-16.5h98.4c.2 5.4.3 10.9.3 16.5z" fill="#aab5c2"/></g><g><path d="m1127.6 549.8-69.6 69.5c-3.2 3.2-7.5 4.8-11.7 4.8s-8.5-1.6-11.7-4.8c-6.5-6.5-6.5-16.9 0-23.4l69.6-69.6c8.1 7.6 15.9 15.4 23.4 23.5z" fill="#aab5c2"/></g></g><g><path d="m974.9 971c-3.4 0-6.8-.7-10.1-2.1l-185-82.2c-9-4-14.7-12.9-14.7-22.7v-181c0-13.7 11.1-24.8 24.8-24.8s24.8 11.1 24.8 24.8v164.9l170.3 75.6c12.5 5.6 18.2 20.2 12.6 32.7-4.1 9.3-13.2 14.8-22.7 14.8z" fill="#ff725c"/></g></g></svg>